<svg version="1.1" viewBox="0.0 0.0 960.0 720.0" fill="none" stroke="none" stroke-linecap="square" stroke-miterlimit="10" xmlns:xlink="http://www.w3.org/1999/xlink" xmlns="http://www.w3.org/2000/svg"><clipPath id="p.0"><path d="m0 0l960.0 0l0 720.0l-960.0 0l0 -720.0z" clip-rule="nonzero"/></clipPath><g clip-path="url(#p.0)"><path fill="#000000" fill-opacity="0.0" d="m0 0l960.0 0l0 720.0l-960.0 0z" fill-rule="evenodd"/><path fill="#000000" d="m265.75854 162.72704l413.7638 0l0 382.67712l-413.7638 0z" fill-rule="evenodd"/><path stroke="#000000" stroke-width="1.0" stroke-linejoin="round" stroke-linecap="butt" d="m265.75854 162.72704l413.7638 0l0 382.67712l-413.7638 0z" fill-rule="evenodd"/><path fill="#000000" d="m161.90814 201.6693l0 0c0 -87.44364 71.204346 -158.33072 159.03937 -158.33072l0 0c42.17987 0 82.63214 16.681225 112.457825 46.37399c29.825653 29.692772 46.581543 69.96481 46.581543 111.956726l0 0c0 87.44362 -71.204346 158.3307 -159.03937 158.3307l0 0c-87.83502 0 -159.03937 -70.887085 -159.03937 -158.3307z" fill-rule="evenodd"/><path stroke="#000000" stroke-width="1.0" stroke-linejoin="round" stroke-linecap="butt" d="m161.90814 201.6693l0 0c0 -87.44364 71.204346 -158.33072 159.03937 -158.33072l0 0c42.17987 0 82.63214 16.681225 112.457825 46.37399c29.825653 29.692772 46.581543 69.96481 46.581543 111.956726l0 0c0 87.44362 -71.204346 158.3307 -159.03937 158.3307l0 0c-87.83502 0 -159.03937 -70.887085 -159.03937 -158.3307z" fill-rule="evenodd"/><path fill="#000000" fill-opacity="0.0" d="m615.7402 61.330708l5.7007446 0l0 342.58267l-5.7007446 0z" fill-rule="evenodd"/></g></svg>